<mxfile host="Electron" modified="2024-07-15T19:00:56.048Z" agent="Mozilla/5.0 (X11; Linux x86_64) AppleWebKit/537.36 (KHTML, like Gecko) draw.io/24.6.4 Chrome/124.0.6367.207 Electron/30.0.6 Safari/537.36" etag="M_dVnNoW-I_9o48GBuAq" version="24.6.4" type="device">
  <diagram name="Page-1" id="ad52d381-51e7-2e0d-a935-2d0ddd2fd229">
    <mxGraphModel dx="1118" dy="1964" grid="1" gridSize="10" guides="1" tooltips="1" connect="1" arrows="1" fold="1" page="1" pageScale="1" pageWidth="1100" pageHeight="850" background="none" math="0" shadow="0">
      <root>
        <mxCell id="0" />
        <mxCell id="1" parent="0" />
        <mxCell id="2qFLCFtwBSNQnZVzGPH8-1" value="&lt;div style=&quot;font-size: 13px;&quot;&gt;&lt;font style=&quot;font-size: 13px;&quot;&gt;Application of machine learning to&lt;/font&gt;&lt;/div&gt;&lt;div style=&quot;font-size: 13px;&quot;&gt;&lt;font style=&quot;font-size: 13px;&quot;&gt;predict obstructive sleep&lt;/font&gt;&lt;/div&gt;&lt;div style=&quot;font-size: 13px;&quot;&gt;&lt;font style=&quot;font-size: 13px;&quot;&gt;apnea syndrome severity&lt;/font&gt;&lt;/div&gt;" style="ellipse;whiteSpace=wrap;html=1;fillColor=#f5f5f5;fontColor=#333333;strokeColor=#666666;shadow=0;strokeWidth=4;" parent="1" vertex="1">
          <mxGeometry x="290" y="565" width="220" height="90" as="geometry" />
        </mxCell>
        <mxCell id="2qFLCFtwBSNQnZVzGPH8-2" value="Predict : severity" style="rounded=1;whiteSpace=wrap;html=1;" parent="1" vertex="1">
          <mxGeometry x="230" y="695" width="120" height="20" as="geometry" />
        </mxCell>
        <mxCell id="2qFLCFtwBSNQnZVzGPH8-5" value="" style="endArrow=none;dashed=1;html=1;dashPattern=1 3;strokeWidth=2;rounded=0;" parent="1" source="2qFLCFtwBSNQnZVzGPH8-2" target="2qFLCFtwBSNQnZVzGPH8-1" edge="1">
          <mxGeometry width="50" height="50" relative="1" as="geometry">
            <mxPoint x="320" y="685" as="sourcePoint" />
            <mxPoint x="350" y="655" as="targetPoint" />
          </mxGeometry>
        </mxCell>
        <mxCell id="2qFLCFtwBSNQnZVzGPH8-7" value="Non lu" style="ellipse;whiteSpace=wrap;html=1;fontSize=13;" parent="1" vertex="1">
          <mxGeometry x="980" y="920" width="50" height="50" as="geometry" />
        </mxCell>
        <mxCell id="2qFLCFtwBSNQnZVzGPH8-8" value="Abstract" style="ellipse;whiteSpace=wrap;html=1;fontSize=13;fillColor=#f5f5f5;fontColor=#333333;strokeColor=#666666;" parent="1" vertex="1">
          <mxGeometry x="980" y="980" width="50" height="50" as="geometry" />
        </mxCell>
        <mxCell id="2qFLCFtwBSNQnZVzGPH8-9" value="Rapide" style="ellipse;whiteSpace=wrap;html=1;fontSize=13;fillColor=#fff2cc;strokeColor=#d6b656;" parent="1" vertex="1">
          <mxGeometry x="980" y="1100" width="50" height="50" as="geometry" />
        </mxCell>
        <mxCell id="2qFLCFtwBSNQnZVzGPH8-10" value="Complet" style="ellipse;whiteSpace=wrap;html=1;fontSize=13;fillColor=#dae8fc;strokeColor=#6c8ebf;" parent="1" vertex="1">
          <mxGeometry x="980" y="1160" width="50" height="50" as="geometry" />
        </mxCell>
        <mxCell id="2qFLCFtwBSNQnZVzGPH8-11" value="Résumé" style="ellipse;whiteSpace=wrap;html=1;fontSize=13;fillColor=#e1d5e7;strokeColor=#9673a6;" parent="1" vertex="1">
          <mxGeometry x="980" y="1220" width="50" height="50" as="geometry" />
        </mxCell>
        <mxCell id="2qFLCFtwBSNQnZVzGPH8-12" value="Testé" style="ellipse;whiteSpace=wrap;html=1;fontSize=13;fillColor=#d5e8d4;strokeColor=#82b366;" parent="1" vertex="1">
          <mxGeometry x="980" y="1280" width="50" height="50" as="geometry" />
        </mxCell>
        <mxCell id="2qFLCFtwBSNQnZVzGPH8-14" value="&lt;div style=&quot;&quot;&gt;A Survey on Recent Advances in Machine Learning Based Sleep Apnea Detection Systems, 2021&lt;br&gt;&lt;/div&gt;" style="ellipse;whiteSpace=wrap;html=1;shadow=0;fillColor=#fff2cc;strokeColor=#d6b656;strokeWidth=4;" parent="1" vertex="1">
          <mxGeometry x="510" y="425" width="220" height="90" as="geometry" />
        </mxCell>
        <mxCell id="2qFLCFtwBSNQnZVzGPH8-15" value="Predict : diagnostic" style="rounded=1;whiteSpace=wrap;html=1;" parent="1" vertex="1">
          <mxGeometry x="670" y="580" width="120" height="25" as="geometry" />
        </mxCell>
        <mxCell id="2qFLCFtwBSNQnZVzGPH8-16" value="" style="endArrow=none;dashed=1;html=1;dashPattern=1 3;strokeWidth=2;rounded=0;fontSize=13;exitX=0.25;exitY=0;exitDx=0;exitDy=0;" parent="1" source="2qFLCFtwBSNQnZVzGPH8-15" target="2qFLCFtwBSNQnZVzGPH8-14" edge="1">
          <mxGeometry width="50" height="50" relative="1" as="geometry">
            <mxPoint x="595" y="555" as="sourcePoint" />
            <mxPoint x="645" y="505" as="targetPoint" />
          </mxGeometry>
        </mxCell>
        <mxCell id="2qFLCFtwBSNQnZVzGPH8-18" value="" style="endArrow=classic;html=1;rounded=0;fontSize=13;" parent="1" source="2qFLCFtwBSNQnZVzGPH8-14" target="2qFLCFtwBSNQnZVzGPH8-1" edge="1">
          <mxGeometry width="50" height="50" relative="1" as="geometry">
            <mxPoint x="310" y="515" as="sourcePoint" />
            <mxPoint x="360" y="465" as="targetPoint" />
          </mxGeometry>
        </mxCell>
        <mxCell id="2qFLCFtwBSNQnZVzGPH8-23" value="demographic" style="shape=cylinder3;whiteSpace=wrap;html=1;boundedLbl=1;backgroundOutline=1;size=15;shadow=0;sketch=1;fontSize=8;fillColor=default;gradientColor=none;" parent="1" vertex="1">
          <mxGeometry x="200" y="615" width="60" height="50" as="geometry" />
        </mxCell>
        <mxCell id="2qFLCFtwBSNQnZVzGPH8-24" value="" style="endArrow=none;dashed=1;html=1;dashPattern=1 3;strokeWidth=2;rounded=0;fontSize=8;" parent="1" source="2qFLCFtwBSNQnZVzGPH8-1" target="2qFLCFtwBSNQnZVzGPH8-23" edge="1">
          <mxGeometry width="50" height="50" relative="1" as="geometry">
            <mxPoint x="219.28932188134524" y="660" as="sourcePoint" />
            <mxPoint x="219.28932188134524" y="610" as="targetPoint" />
          </mxGeometry>
        </mxCell>
        <mxCell id="2qFLCFtwBSNQnZVzGPH8-25" value="demographic" style="shape=cylinder3;whiteSpace=wrap;html=1;boundedLbl=1;backgroundOutline=1;size=15;shadow=0;sketch=1;fontSize=8;fillColor=default;gradientColor=none;" parent="1" vertex="1">
          <mxGeometry x="710" y="515" width="60" height="50" as="geometry" />
        </mxCell>
        <mxCell id="2qFLCFtwBSNQnZVzGPH8-26" value="" style="endArrow=none;dashed=1;html=1;dashPattern=1 3;strokeWidth=2;rounded=0;fontSize=8;" parent="1" source="2qFLCFtwBSNQnZVzGPH8-25" target="2qFLCFtwBSNQnZVzGPH8-14" edge="1">
          <mxGeometry width="50" height="50" relative="1" as="geometry">
            <mxPoint x="530" y="715" as="sourcePoint" />
            <mxPoint x="580" y="665" as="targetPoint" />
          </mxGeometry>
        </mxCell>
        <mxCell id="2qFLCFtwBSNQnZVzGPH8-29" value="Survol" style="ellipse;whiteSpace=wrap;html=1;fontSize=13;fillColor=#ffe6cc;strokeColor=#d79b00;" parent="1" vertex="1">
          <mxGeometry x="980" y="1040" width="50" height="50" as="geometry" />
        </mxCell>
        <mxCell id="svLr33NQ2NeaOA_6RIRE-1" value="&lt;div style=&quot;&quot;&gt;Home diagnostic of Sleep Apnea : A Systematic Review of the Litterature, 2003&lt;br&gt;&lt;/div&gt;" style="ellipse;whiteSpace=wrap;html=1;shadow=0;fillColor=#ffe6cc;strokeColor=#d79b00;strokeWidth=4;" parent="1" vertex="1">
          <mxGeometry x="280" y="330" width="220" height="90" as="geometry" />
        </mxCell>
        <mxCell id="svLr33NQ2NeaOA_6RIRE-4" value="" style="endArrow=classic;html=1;rounded=0;" parent="1" source="2qFLCFtwBSNQnZVzGPH8-14" target="svLr33NQ2NeaOA_6RIRE-1" edge="1">
          <mxGeometry width="50" height="50" relative="1" as="geometry">
            <mxPoint x="460" y="420" as="sourcePoint" />
            <mxPoint x="700" y="400" as="targetPoint" />
          </mxGeometry>
        </mxCell>
        <mxCell id="svLr33NQ2NeaOA_6RIRE-5" value="&lt;div style=&quot;&quot;&gt;Diagnostic with waveform/spectral detection[19-21]&lt;br&gt;&lt;/div&gt;" style="ellipse;whiteSpace=wrap;html=1;shadow=0;" parent="1" vertex="1">
          <mxGeometry x="460" y="230" width="220" height="90" as="geometry" />
        </mxCell>
        <mxCell id="svLr33NQ2NeaOA_6RIRE-6" value="" style="endArrow=classic;html=1;rounded=0;" parent="1" source="2qFLCFtwBSNQnZVzGPH8-14" target="svLr33NQ2NeaOA_6RIRE-5" edge="1">
          <mxGeometry width="50" height="50" relative="1" as="geometry">
            <mxPoint x="592.8140224588562" y="437.6493033559195" as="sourcePoint" />
            <mxPoint x="557.2591415100014" y="397.3399335340923" as="targetPoint" />
          </mxGeometry>
        </mxCell>
        <mxCell id="svLr33NQ2NeaOA_6RIRE-7" value="&lt;div style=&quot;&quot;&gt;Standard annotation [70] [71]&lt;br&gt;&lt;/div&gt;" style="ellipse;whiteSpace=wrap;html=1;shadow=0;" parent="1" vertex="1">
          <mxGeometry x="800" y="280" width="220" height="90" as="geometry" />
        </mxCell>
        <mxCell id="svLr33NQ2NeaOA_6RIRE-8" value="" style="endArrow=classic;html=1;rounded=0;" parent="1" source="2qFLCFtwBSNQnZVzGPH8-14" target="svLr33NQ2NeaOA_6RIRE-7" edge="1">
          <mxGeometry width="50" height="50" relative="1" as="geometry">
            <mxPoint x="690" y="450" as="sourcePoint" />
            <mxPoint x="740" y="400" as="targetPoint" />
          </mxGeometry>
        </mxCell>
        <mxCell id="IUynCLUEa05PPwKCIfmS-1" value="&lt;div style=&quot;line-height: 20%;&quot;&gt;&lt;h1 style=&quot;line-height: 20%;&quot; class=&quot;document-title text-2xl-md-lh&quot;&gt;&lt;font style=&quot;font-weight: normal; font-size: 8px;&quot;&gt;Automated Sleep Apnea Detection in Raw Respiratory Signals Using Long Short-Term Memory Neural Networks,2018&lt;/font&gt;&lt;/h1&gt;&lt;/div&gt;" style="ellipse;whiteSpace=wrap;html=1;shadow=0;align=center;fillColor=#ffe6cc;strokeColor=#d79b00;" parent="1" vertex="1">
          <mxGeometry x="810" y="400" width="140" height="120" as="geometry" />
        </mxCell>
        <mxCell id="IUynCLUEa05PPwKCIfmS-2" value="" style="endArrow=classic;html=1;rounded=0;entryX=0;entryY=0.5;entryDx=0;entryDy=0;" parent="1" source="2qFLCFtwBSNQnZVzGPH8-14" target="IUynCLUEa05PPwKCIfmS-1" edge="1">
          <mxGeometry width="50" height="50" relative="1" as="geometry">
            <mxPoint x="682.5520652382686" y="440.4675905640049" as="sourcePoint" />
            <mxPoint x="757.2832773939424" y="384.49570328580853" as="targetPoint" />
          </mxGeometry>
        </mxCell>
        <mxCell id="IUynCLUEa05PPwKCIfmS-4" value="Sleep-Heart-Health-Study&lt;br&gt;https://sleepdata.org/datasets/shhs" style="shape=cylinder3;whiteSpace=wrap;html=1;boundedLbl=1;backgroundOutline=1;size=15;shadow=0;sketch=1;fontSize=8;fillColor=default;gradientColor=none;" parent="1" vertex="1">
          <mxGeometry x="1080" y="350" width="90" height="100" as="geometry" />
        </mxCell>
        <mxCell id="IUynCLUEa05PPwKCIfmS-5" value="" style="endArrow=none;dashed=1;html=1;dashPattern=1 3;strokeWidth=2;rounded=0;fontSize=8;" parent="1" source="IUynCLUEa05PPwKCIfmS-1" target="IUynCLUEa05PPwKCIfmS-4" edge="1">
          <mxGeometry width="50" height="50" relative="1" as="geometry">
            <mxPoint x="910" y="600" as="sourcePoint" />
            <mxPoint x="960" y="550" as="targetPoint" />
          </mxGeometry>
        </mxCell>
        <mxCell id="IUynCLUEa05PPwKCIfmS-6" value="intégré&lt;br&gt;proj" style="ellipse;whiteSpace=wrap;html=1;fontSize=13;strokeWidth=3;" parent="1" vertex="1">
          <mxGeometry x="980" y="1340" width="50" height="50" as="geometry" />
        </mxCell>
        <mxCell id="IUynCLUEa05PPwKCIfmS-10" value="&lt;div style=&quot;line-height: 28%;&quot;&gt;&lt;h1 style=&quot;line-height: 28%;&quot; class=&quot;document-title text-2xl-md-lh&quot;&gt;&lt;font style=&quot;font-size: 10px; font-weight: normal;&quot;&gt;Agreement in computer-assisted manual scoring of polysomnograms across sleep centers&lt;/font&gt;&lt;br&gt;&lt;/h1&gt;&lt;/div&gt;" style="ellipse;whiteSpace=wrap;html=1;shadow=0;align=center;" parent="1" vertex="1">
          <mxGeometry x="780" y="580" width="140" height="120" as="geometry" />
        </mxCell>
        <mxCell id="IUynCLUEa05PPwKCIfmS-11" value="" style="endArrow=classic;html=1;rounded=0;" parent="1" source="IUynCLUEa05PPwKCIfmS-1" target="IUynCLUEa05PPwKCIfmS-10" edge="1">
          <mxGeometry width="50" height="50" relative="1" as="geometry">
            <mxPoint x="739.1483170254755" y="474.41108015231" as="sourcePoint" />
            <mxPoint x="820" y="470" as="targetPoint" />
          </mxGeometry>
        </mxCell>
        <mxCell id="r7IJiQC3CwLekN_o84LE-1" value="&lt;div style=&quot;&quot;&gt;&amp;nbsp;Homecare interventions as a Service model for Obstructive sleep Apnea : Delivering personalised phone call using patient profiling and adherence predictions&lt;br&gt;&lt;/div&gt;" style="ellipse;whiteSpace=wrap;html=1;fillColor=#fff2cc;strokeColor=#d6b656;shadow=0;strokeWidth=4;" parent="1" vertex="1">
          <mxGeometry x="160" y="1170" width="250" height="120" as="geometry" />
        </mxCell>
        <mxCell id="r7IJiQC3CwLekN_o84LE-2" value="Predict : adherence" style="rounded=1;whiteSpace=wrap;html=1;" parent="1" vertex="1">
          <mxGeometry x="200" y="1100" width="120" height="20" as="geometry" />
        </mxCell>
        <mxCell id="r7IJiQC3CwLekN_o84LE-3" value="" style="endArrow=none;dashed=1;html=1;dashPattern=1 3;strokeWidth=2;rounded=0;" parent="1" source="IUynCLUEa05PPwKCIfmS-4" target="BTIZOSdXw6bUIAzQ4Esy-2" edge="1">
          <mxGeometry width="50" height="50" relative="1" as="geometry">
            <mxPoint x="1110" y="370" as="sourcePoint" />
            <mxPoint x="1160" y="320" as="targetPoint" />
          </mxGeometry>
        </mxCell>
        <mxCell id="r7IJiQC3CwLekN_o84LE-4" value="" style="endArrow=none;dashed=1;html=1;dashPattern=1 3;strokeWidth=2;rounded=0;" parent="1" source="r7IJiQC3CwLekN_o84LE-2" target="r7IJiQC3CwLekN_o84LE-1" edge="1">
          <mxGeometry width="50" height="50" relative="1" as="geometry">
            <mxPoint x="275" y="1050" as="sourcePoint" />
            <mxPoint x="325" y="1000" as="targetPoint" />
          </mxGeometry>
        </mxCell>
        <mxCell id="r7IJiQC3CwLekN_o84LE-6" value="&lt;div style=&quot;&quot;&gt;Clinical practice guideline for diagnostic testing for adult obstructive sleep apnea: an American Academy of Sleep Medicine clinical practice guideline 2017&lt;br&gt;&lt;/div&gt;" style="ellipse;whiteSpace=wrap;html=1;shadow=0;fillColor=#f5f5f5;fontColor=#333333;strokeColor=#666666;strokeWidth=4;" parent="1" vertex="1">
          <mxGeometry x="40" y="210" width="240" height="140" as="geometry" />
        </mxCell>
        <mxCell id="r7IJiQC3CwLekN_o84LE-7" value="" style="endArrow=classic;html=1;rounded=0;" parent="1" source="r7IJiQC3CwLekN_o84LE-6" target="svLr33NQ2NeaOA_6RIRE-1" edge="1">
          <mxGeometry width="50" height="50" relative="1" as="geometry">
            <mxPoint x="790" y="770" as="sourcePoint" />
            <mxPoint x="840" y="720" as="targetPoint" />
          </mxGeometry>
        </mxCell>
        <mxCell id="r7IJiQC3CwLekN_o84LE-10" value="&lt;div style=&quot;&quot;&gt;A review of signals used in sleep analysis, 2013&lt;br&gt;&lt;/div&gt;" style="ellipse;whiteSpace=wrap;html=1;shadow=0;" parent="1" vertex="1">
          <mxGeometry x="80" y="450" width="220" height="90" as="geometry" />
        </mxCell>
        <mxCell id="r7IJiQC3CwLekN_o84LE-11" value="" style="endArrow=classic;html=1;rounded=0;" parent="1" source="r7IJiQC3CwLekN_o84LE-10" target="svLr33NQ2NeaOA_6RIRE-1" edge="1">
          <mxGeometry width="50" height="50" relative="1" as="geometry">
            <mxPoint x="340" y="520" as="sourcePoint" />
            <mxPoint x="390" y="470" as="targetPoint" />
          </mxGeometry>
        </mxCell>
        <mxCell id="r7IJiQC3CwLekN_o84LE-12" value="" style="endArrow=classic;html=1;rounded=0;" parent="1" edge="1">
          <mxGeometry width="50" height="50" relative="1" as="geometry">
            <mxPoint x="979.9977490150044" y="1455.6734834952968" as="sourcePoint" />
            <mxPoint x="1030" y="1456" as="targetPoint" />
          </mxGeometry>
        </mxCell>
        <mxCell id="r7IJiQC3CwLekN_o84LE-13" value="Cite" style="edgeLabel;html=1;align=center;verticalAlign=middle;resizable=0;points=[];" parent="r7IJiQC3CwLekN_o84LE-12" vertex="1" connectable="0">
          <mxGeometry x="0.4421" y="1" relative="1" as="geometry">
            <mxPoint x="-16" y="-15" as="offset" />
          </mxGeometry>
        </mxCell>
        <mxCell id="r7IJiQC3CwLekN_o84LE-15" value="&lt;div style=&quot;&quot;&gt;&lt;b&gt;International consensus statement on obstructive sleep apnea, 2022&lt;/b&gt;&lt;br&gt;&lt;/div&gt;" style="ellipse;whiteSpace=wrap;html=1;shadow=0;" parent="1" vertex="1">
          <mxGeometry x="260" y="110" width="240" height="100" as="geometry" />
        </mxCell>
        <mxCell id="r7IJiQC3CwLekN_o84LE-16" value="" style="endArrow=classic;html=1;rounded=0;" parent="1" source="r7IJiQC3CwLekN_o84LE-15" target="svLr33NQ2NeaOA_6RIRE-1" edge="1">
          <mxGeometry width="50" height="50" relative="1" as="geometry">
            <mxPoint x="740" y="740" as="sourcePoint" />
            <mxPoint x="790" y="690" as="targetPoint" />
          </mxGeometry>
        </mxCell>
        <mxCell id="r7IJiQC3CwLekN_o84LE-18" value="&lt;div style=&quot;line-height: 28%;&quot;&gt;&lt;h1 style=&quot;line-height: 28%;&quot; class=&quot;document-title text-2xl-md-lh&quot;&gt;&lt;font style=&quot;font-size: 10px; font-weight: normal;&quot;&gt;A real-time auto-adjustable smart pillow system for sleep apnea detection and treatment, 2013&lt;/font&gt;&lt;/h1&gt;&lt;/div&gt;" style="ellipse;whiteSpace=wrap;html=1;shadow=0;align=center;fillColor=#f5f5f5;fontColor=#333333;strokeColor=#666666;" parent="1" vertex="1">
          <mxGeometry x="520" y="640" width="140" height="120" as="geometry" />
        </mxCell>
        <mxCell id="r7IJiQC3CwLekN_o84LE-19" value="Retroaction" style="rounded=1;whiteSpace=wrap;html=1;" parent="1" vertex="1">
          <mxGeometry x="430" y="692.5" width="70" height="25" as="geometry" />
        </mxCell>
        <mxCell id="r7IJiQC3CwLekN_o84LE-20" style="edgeStyle=orthogonalEdgeStyle;rounded=0;orthogonalLoop=1;jettySize=auto;html=1;exitX=0.5;exitY=1;exitDx=0;exitDy=0;" parent="1" source="r7IJiQC3CwLekN_o84LE-19" target="r7IJiQC3CwLekN_o84LE-19" edge="1">
          <mxGeometry relative="1" as="geometry" />
        </mxCell>
        <mxCell id="r7IJiQC3CwLekN_o84LE-21" value="" style="endArrow=none;dashed=1;html=1;rounded=0;" parent="1" source="r7IJiQC3CwLekN_o84LE-19" target="r7IJiQC3CwLekN_o84LE-18" edge="1">
          <mxGeometry width="50" height="50" relative="1" as="geometry">
            <mxPoint x="740" y="730" as="sourcePoint" />
            <mxPoint x="790" y="680" as="targetPoint" />
          </mxGeometry>
        </mxCell>
        <mxCell id="r7IJiQC3CwLekN_o84LE-22" value="" style="endArrow=classic;html=1;rounded=0;" parent="1" source="2qFLCFtwBSNQnZVzGPH8-14" target="r7IJiQC3CwLekN_o84LE-18" edge="1">
          <mxGeometry width="50" height="50" relative="1" as="geometry">
            <mxPoint x="740" y="730" as="sourcePoint" />
            <mxPoint x="790" y="680" as="targetPoint" />
          </mxGeometry>
        </mxCell>
        <mxCell id="NlWR6yf5Z0yDWORlClu8-1" value="&lt;p style=&quot;line-height: 90%;&quot;&gt;&lt;/p&gt;&lt;div style=&quot;line-height: 70%;&quot;&gt;&lt;h1 class=&quot;wi-article-title article-title-main accessible-content-title at-articleTitle&quot; style=&quot;line-height: 70%;&quot;&gt;&lt;span style=&quot;font-weight: normal;&quot;&gt;&lt;font style=&quot;font-size: 12px;&quot;&gt;Metrics of sleep apnea severity: beyond the apnea-hypopnea index&lt;/font&gt;&lt;/span&gt;&lt;/h1&gt;&lt;/div&gt;&lt;p&gt;&lt;/p&gt;" style="ellipse;html=1;shadow=0;fontSize=11;fontStyle=0;spacing=0;whiteSpace=wrap;strokeWidth=1;fillColor=#f5f5f5;fontColor=#333333;strokeColor=#666666;" parent="1" vertex="1">
          <mxGeometry x="100" y="-320" width="220" height="90" as="geometry" />
        </mxCell>
        <mxCell id="NlWR6yf5Z0yDWORlClu8-2" value="&lt;p style=&quot;line-height: 90%;&quot;&gt;&lt;/p&gt;&lt;div style=&quot;line-height: 70%;&quot;&gt;&lt;h3 style=&quot;line-height: 100%;&quot; class=&quot;gs_rt&quot;&gt;&lt;a data-clk-atid=&quot;H0crOFzjOHgJ&quot; data-clk=&quot;hl=fr&amp;amp;sa=T&amp;amp;ct=res&amp;amp;cd=8&amp;amp;d=8662923868466005791&amp;amp;ei=qqPrY_LQEI3WyQSvgJyIDQ&quot; href=&quot;https://www.atsjournals.org/doi/abs/10.1164/rccm.201804-0758OC&quot; id=&quot;H0crOFzjOHgJ&quot;&gt;&lt;font style=&quot;font-weight: normal;&quot; color=&quot;#000000&quot;&gt;Apnea–hypopnea event duration predicts mortality in men and women in the sleep heart health study&lt;/font&gt;&lt;/a&gt;&lt;/h3&gt;&lt;/div&gt;&lt;p&gt;&lt;/p&gt;" style="ellipse;html=1;shadow=0;fontSize=11;fontStyle=0;spacing=0;whiteSpace=wrap;strokeWidth=1;fillColor=#f5f5f5;fontColor=#333333;strokeColor=#666666;" parent="1" vertex="1">
          <mxGeometry x="190" y="-180" width="220" height="90" as="geometry" />
        </mxCell>
        <mxCell id="NlWR6yf5Z0yDWORlClu8-3" value="" style="endArrow=classic;html=1;rounded=0;" parent="1" source="NlWR6yf5Z0yDWORlClu8-1" target="NlWR6yf5Z0yDWORlClu8-2" edge="1">
          <mxGeometry width="50" height="50" relative="1" as="geometry">
            <mxPoint x="102.67373437487095" y="200.49469921884656" as="sourcePoint" />
            <mxPoint x="177.11072610518977" y="144.45707735009682" as="targetPoint" />
          </mxGeometry>
        </mxCell>
        <mxCell id="NlWR6yf5Z0yDWORlClu8-4" value="Time-to-event" style="rounded=1;whiteSpace=wrap;html=1;fillColor=#d80073;strokeColor=#A50040;fontColor=#ffffff;" parent="1" vertex="1">
          <mxGeometry x="250" y="-60" width="120" height="25" as="geometry" />
        </mxCell>
        <mxCell id="NlWR6yf5Z0yDWORlClu8-5" value="" style="endArrow=none;dashed=1;html=1;rounded=0;fontSize=12;fontColor=#000000;" parent="1" source="NlWR6yf5Z0yDWORlClu8-4" target="NlWR6yf5Z0yDWORlClu8-2" edge="1">
          <mxGeometry width="50" height="50" relative="1" as="geometry">
            <mxPoint x="140" y="-30" as="sourcePoint" />
            <mxPoint x="190" y="-80" as="targetPoint" />
          </mxGeometry>
        </mxCell>
        <mxCell id="NlWR6yf5Z0yDWORlClu8-6" value="&lt;p style=&quot;line-height: 90%;&quot;&gt;&lt;/p&gt;&lt;div style=&quot;line-height: 75%;&quot;&gt;&lt;h1 style=&quot;line-height: 75%;&quot;&gt;&lt;font style=&quot;font-weight: normal; font-size: 11px;&quot;&gt;More Than the Sum of the Respiratory Events: Personalized Medicine Approaches for Obstructive Sleep Apnea&lt;/font&gt;&lt;/h1&gt;&lt;/div&gt;&lt;p&gt;&lt;/p&gt;" style="ellipse;html=1;shadow=0;fontSize=11;fontStyle=0;spacing=0;whiteSpace=wrap;strokeWidth=1;fillColor=#f5f5f5;fontColor=#333333;strokeColor=#666666;" parent="1" vertex="1">
          <mxGeometry x="370" y="-320" width="220" height="90" as="geometry" />
        </mxCell>
        <mxCell id="NlWR6yf5Z0yDWORlClu8-7" value="" style="endArrow=classic;html=1;rounded=0;" parent="1" source="NlWR6yf5Z0yDWORlClu8-6" target="NlWR6yf5Z0yDWORlClu8-2" edge="1">
          <mxGeometry width="50" height="50" relative="1" as="geometry">
            <mxPoint x="247.97726109325185" y="-221.47981607716406" as="sourcePoint" />
            <mxPoint x="282.10583578752676" y="-168.52910975831787" as="targetPoint" />
          </mxGeometry>
        </mxCell>
        <mxCell id="NlWR6yf5Z0yDWORlClu8-8" value="Metrics" style="rounded=1;whiteSpace=wrap;html=1;" parent="1" vertex="1">
          <mxGeometry x="60" y="-205" width="120" height="25" as="geometry" />
        </mxCell>
        <mxCell id="NlWR6yf5Z0yDWORlClu8-9" value="" style="endArrow=none;dashed=1;html=1;dashPattern=1 3;strokeWidth=2;rounded=0;fontSize=11;fontColor=#000000;" parent="1" source="NlWR6yf5Z0yDWORlClu8-8" target="NlWR6yf5Z0yDWORlClu8-1" edge="1">
          <mxGeometry width="50" height="50" relative="1" as="geometry">
            <mxPoint x="150" y="-220" as="sourcePoint" />
            <mxPoint x="150" y="-250" as="targetPoint" />
          </mxGeometry>
        </mxCell>
        <mxCell id="NlWR6yf5Z0yDWORlClu8-10" value="Personnalized" style="rounded=1;whiteSpace=wrap;html=1;" parent="1" vertex="1">
          <mxGeometry x="440" y="-205" width="120" height="25" as="geometry" />
        </mxCell>
        <mxCell id="NlWR6yf5Z0yDWORlClu8-11" value="" style="endArrow=none;dashed=1;html=1;dashPattern=1 3;strokeWidth=2;rounded=0;fontSize=11;fontColor=#000000;" parent="1" source="NlWR6yf5Z0yDWORlClu8-10" target="NlWR6yf5Z0yDWORlClu8-6" edge="1">
          <mxGeometry width="50" height="50" relative="1" as="geometry">
            <mxPoint x="480" y="-210" as="sourcePoint" />
            <mxPoint x="530" y="-260" as="targetPoint" />
          </mxGeometry>
        </mxCell>
        <mxCell id="NlWR6yf5Z0yDWORlClu8-12" value="&lt;p style=&quot;line-height: 90%; font-size: 13px;&quot;&gt;&lt;/p&gt;&lt;div style=&quot;line-height: 103%; font-size: 13px;&quot;&gt;&lt;h1 style=&quot;line-height: 103%; font-size: 13px;&quot; class=&quot;Head u-font-gulliver u-h2 u-margin-s-ver&quot; id=&quot;screen-reader-main-title&quot;&gt;&lt;span style=&quot;font-size: 13px; font-weight: normal;&quot;&gt;&lt;font style=&quot;font-size: 13px;&quot;&gt;Reinventing polysomnography in the age of precision medicine&lt;/font&gt;&lt;/span&gt;&lt;/h1&gt;&lt;/div&gt;&lt;p style=&quot;font-size: 13px;&quot;&gt;&lt;/p&gt;" style="ellipse;html=1;shadow=0;fontSize=13;fontStyle=1;spacing=0;whiteSpace=wrap;strokeWidth=1;fillColor=#fff2cc;strokeColor=#d6b656;" parent="1" vertex="1">
          <mxGeometry x="450" y="-160" width="220" height="90" as="geometry" />
        </mxCell>
        <mxCell id="NlWR6yf5Z0yDWORlClu8-13" value="" style="endArrow=classic;html=1;rounded=0;fontSize=13;fontColor=#000000;entryX=1;entryY=1;entryDx=0;entryDy=0;" parent="1" source="NlWR6yf5Z0yDWORlClu8-12" target="NlWR6yf5Z0yDWORlClu8-2" edge="1">
          <mxGeometry width="50" height="50" relative="1" as="geometry">
            <mxPoint x="475" y="70" as="sourcePoint" />
            <mxPoint x="525" y="20" as="targetPoint" />
          </mxGeometry>
        </mxCell>
        <mxCell id="NlWR6yf5Z0yDWORlClu8-14" value="better data usage&amp;nbsp;" style="rounded=1;whiteSpace=wrap;html=1;" parent="1" vertex="1">
          <mxGeometry x="560" y="-5" width="120" height="25" as="geometry" />
        </mxCell>
        <mxCell id="NlWR6yf5Z0yDWORlClu8-15" value="" style="endArrow=none;dashed=1;html=1;dashPattern=1 3;strokeWidth=2;rounded=0;fontSize=13;fontColor=#000000;" parent="1" source="NlWR6yf5Z0yDWORlClu8-14" target="NlWR6yf5Z0yDWORlClu8-12" edge="1">
          <mxGeometry width="50" height="50" relative="1" as="geometry">
            <mxPoint x="542.8571428571431" y="-40" as="sourcePoint" />
            <mxPoint x="620" y="-50" as="targetPoint" />
          </mxGeometry>
        </mxCell>
        <mxCell id="NlWR6yf5Z0yDWORlClu8-16" value="Metrics" style="rounded=1;whiteSpace=wrap;html=1;" parent="1" vertex="1">
          <mxGeometry x="620" y="-50" width="120" height="25" as="geometry" />
        </mxCell>
        <mxCell id="NlWR6yf5Z0yDWORlClu8-17" value="" style="endArrow=none;dashed=1;html=1;dashPattern=1 3;strokeWidth=2;rounded=0;fontSize=13;fontColor=#000000;" parent="1" source="NlWR6yf5Z0yDWORlClu8-16" target="NlWR6yf5Z0yDWORlClu8-12" edge="1">
          <mxGeometry width="50" height="50" relative="1" as="geometry">
            <mxPoint x="590" y="-50" as="sourcePoint" />
            <mxPoint x="640" y="-100" as="targetPoint" />
          </mxGeometry>
        </mxCell>
        <mxCell id="NlWR6yf5Z0yDWORlClu8-19" value="" style="curved=1;endArrow=classic;html=1;rounded=0;fontSize=13;fontColor=#000000;" parent="1" source="NlWR6yf5Z0yDWORlClu8-12" target="NlWR6yf5Z0yDWORlClu8-20" edge="1">
          <mxGeometry width="50" height="50" relative="1" as="geometry">
            <mxPoint x="620" y="-120" as="sourcePoint" />
            <mxPoint x="680" y="-164.70588235294122" as="targetPoint" />
            <Array as="points">
              <mxPoint x="730" y="-90" />
              <mxPoint x="710" y="-130" />
              <mxPoint x="620" y="-170" />
            </Array>
          </mxGeometry>
        </mxCell>
        <mxCell id="NlWR6yf5Z0yDWORlClu8-20" value="&lt;font style=&quot;font-size: 10px;&quot;&gt;we need software companies to incorporate novel PSG metrics into existing software to make them more readily available for clinical research.&lt;/font&gt;" style="ellipse;shape=cloud;whiteSpace=wrap;html=1;strokeWidth=1;fontSize=13;fontColor=#000000;" parent="1" vertex="1">
          <mxGeometry x="690" y="-262.5" width="190" height="140" as="geometry" />
        </mxCell>
        <mxCell id="NlWR6yf5Z0yDWORlClu8-21" value="&lt;p style=&quot;line-height: 90%; font-size: 13px;&quot;&gt;&lt;/p&gt;&lt;div style=&quot;line-height: 53%;&quot;&gt;&lt;h1 style=&quot;line-height: 53%;&quot; class=&quot;Head u-font-gulliver u-h2 u-margin-s-ver&quot; id=&quot;screen-reader-main-title&quot;&gt;&lt;font style=&quot;font-size: 11px; font-weight: normal;&quot;&gt;Cardiopulmonary coupling spectrogram as an ambulatory clinical biomarker of sleep stability and quality in health, sleep apnea and insomnia, 2017&lt;/font&gt;&lt;br&gt;&lt;/h1&gt;&lt;/div&gt;&lt;p style=&quot;font-size: 13px;&quot;&gt;&lt;/p&gt;" style="ellipse;html=1;shadow=0;fontSize=13;fontStyle=0;spacing=0;whiteSpace=wrap;strokeWidth=1;fillColor=#f5f5f5;fontColor=#333333;strokeColor=#666666;" parent="1" vertex="1">
          <mxGeometry x="780" y="-100" width="240" height="90" as="geometry" />
        </mxCell>
        <mxCell id="NlWR6yf5Z0yDWORlClu8-22" value="" style="endArrow=classic;html=1;rounded=0;fontSize=11;fontColor=#000000;" parent="1" source="NlWR6yf5Z0yDWORlClu8-12" target="NlWR6yf5Z0yDWORlClu8-21" edge="1">
          <mxGeometry width="50" height="50" relative="1" as="geometry">
            <mxPoint x="770" y="190" as="sourcePoint" />
            <mxPoint x="820" y="140" as="targetPoint" />
          </mxGeometry>
        </mxCell>
        <mxCell id="NlWR6yf5Z0yDWORlClu8-23" value="&#xa;&lt;span id=&quot;page433R_mcid0&quot; class=&quot;markedContent&quot;&gt;&lt;span dir=&quot;ltr&quot; role=&quot;presentation&quot; style=&quot;left: calc(var(--scale-factor)*469.07px); top: calc(var(--scale-factor)*76.51px); font-size: calc(var(--scale-factor)*10.51px); font-family: serif; transform: scaleX(0.951066);&quot;&gt;Canadian&lt;/span&gt;&lt;br role=&quot;presentation&quot;&gt;&lt;span dir=&quot;ltr&quot; role=&quot;presentation&quot; style=&quot;left: calc(var(--scale-factor)*150.00px); top: calc(var(--scale-factor)*90.51px); font-size: calc(var(--scale-factor)*10.51px); font-family: serif; transform: scaleX(0.950517);&quot;&gt;Sleep and Circadian Network&lt;/span&gt;&lt;/span&gt;&#xa;&#xa;" style="shape=cylinder3;whiteSpace=wrap;html=1;boundedLbl=1;backgroundOutline=1;size=15;strokeWidth=1;fontSize=11;fontColor=#000000;" parent="1" vertex="1">
          <mxGeometry x="400" y="-40" width="60" height="80" as="geometry" />
        </mxCell>
        <mxCell id="NlWR6yf5Z0yDWORlClu8-24" value="" style="endArrow=none;dashed=1;html=1;dashPattern=1 3;strokeWidth=2;rounded=0;fontSize=11;fontColor=#000000;" parent="1" source="NlWR6yf5Z0yDWORlClu8-23" target="NlWR6yf5Z0yDWORlClu8-12" edge="1">
          <mxGeometry width="50" height="50" relative="1" as="geometry">
            <mxPoint x="770" y="160" as="sourcePoint" />
            <mxPoint x="820" y="110" as="targetPoint" />
          </mxGeometry>
        </mxCell>
        <mxCell id="NlWR6yf5Z0yDWORlClu8-25" value="&#xa;&lt;span id=&quot;page433R_mcid2&quot; class=&quot;markedContent&quot;&gt;&lt;span dir=&quot;ltr&quot; role=&quot;presentation&quot; style=&quot;left: calc(var(--scale-factor)*230.54px); top: calc(var(--scale-factor)*146.90px); font-size: calc(var(--scale-factor)*10.00px); font-family: serif; transform: scaleX(0.99852);&quot;&gt;European Sleep Apnea Database &lt;/span&gt;&lt;/span&gt;&#xa;&#xa;" style="shape=cylinder3;whiteSpace=wrap;html=1;boundedLbl=1;backgroundOutline=1;size=15;strokeWidth=1;fontSize=11;fontColor=#000000;" parent="1" vertex="1">
          <mxGeometry x="480" y="-25" width="60" height="80" as="geometry" />
        </mxCell>
        <mxCell id="NlWR6yf5Z0yDWORlClu8-26" value="" style="endArrow=none;dashed=1;html=1;dashPattern=1 3;strokeWidth=2;rounded=0;fontSize=11;fontColor=#000000;exitX=0.5;exitY=0.336;exitDx=0;exitDy=0;exitPerimeter=0;" parent="1" source="NlWR6yf5Z0yDWORlClu8-25" target="NlWR6yf5Z0yDWORlClu8-12" edge="1">
          <mxGeometry width="50" height="50" relative="1" as="geometry">
            <mxPoint x="530" y="-30" as="sourcePoint" />
            <mxPoint x="580" y="-80" as="targetPoint" />
          </mxGeometry>
        </mxCell>
        <mxCell id="3RpPMezvQt_zFxOXLZJK-1" value="&lt;div style=&quot;line-height: 52%;&quot;&gt;&lt;h1 style=&quot;line-height: 52%;&quot; class=&quot;title hypothesis_container&quot;&gt;&lt;font style=&quot;font-size: 10px; font-weight: normal;&quot;&gt;Ergonomic Consideration in Pillow Height Determinants and Evaluation, 2021&lt;/font&gt;&lt;/h1&gt;&lt;/div&gt;" style="ellipse;whiteSpace=wrap;html=1;shadow=0;align=center;fillColor=#f5f5f5;fontColor=#333333;strokeColor=#666666;" parent="1" vertex="1">
          <mxGeometry x="770" y="705" width="140" height="90" as="geometry" />
        </mxCell>
        <mxCell id="3RpPMezvQt_zFxOXLZJK-2" value="" style="endArrow=classic;html=1;rounded=0;fontSize=10;" parent="1" source="3RpPMezvQt_zFxOXLZJK-1" target="r7IJiQC3CwLekN_o84LE-18" edge="1">
          <mxGeometry width="50" height="50" relative="1" as="geometry">
            <mxPoint x="780" y="795" as="sourcePoint" />
            <mxPoint x="830" y="745" as="targetPoint" />
          </mxGeometry>
        </mxCell>
        <mxCell id="3RpPMezvQt_zFxOXLZJK-4" value="&lt;div style=&quot;line-height: 38%;&quot;&gt;&lt;h1 style=&quot;line-height: 38%;&quot; class=&quot;document-title text-2xl-md-lh&quot;&gt;&lt;font style=&quot;font-size: 11px; font-weight: normal;&quot;&gt;Smart Pillow:Sleep Apnea Monitoring &amp;amp; Minimization Device, 2019&lt;/font&gt;&lt;/h1&gt;&lt;/div&gt;" style="ellipse;whiteSpace=wrap;html=1;shadow=0;align=center;fillColor=#ffe6cc;strokeColor=#d79b00;" parent="1" vertex="1">
          <mxGeometry x="360" y="770" width="140" height="90" as="geometry" />
        </mxCell>
        <mxCell id="3RpPMezvQt_zFxOXLZJK-5" value="" style="endArrow=classic;html=1;rounded=0;fontSize=11;" parent="1" source="3RpPMezvQt_zFxOXLZJK-4" target="r7IJiQC3CwLekN_o84LE-18" edge="1">
          <mxGeometry width="50" height="50" relative="1" as="geometry">
            <mxPoint x="480" y="810" as="sourcePoint" />
            <mxPoint x="530" y="760" as="targetPoint" />
          </mxGeometry>
        </mxCell>
        <mxCell id="3RpPMezvQt_zFxOXLZJK-6" value="&lt;div style=&quot;line-height: 40%;&quot;&gt;&lt;h1 style=&quot;line-height: 40%;&quot; class=&quot;content-title&quot;&gt;&lt;font style=&quot;font-weight: normal; font-size: 11px;&quot;&gt;Technologic advances in the assessment and &lt;br/&gt;management of obstructive sleep apnoea beyond the apnoea-hypopnoea &lt;br/&gt;index: a narrative review,2020&lt;/font&gt;&lt;/h1&gt;&lt;/div&gt;" style="ellipse;whiteSpace=wrap;html=1;shadow=0;align=center;fillColor=#ffe6cc;strokeColor=#d79b00;" parent="1" vertex="1">
          <mxGeometry x="510" y="860" width="240" height="110" as="geometry" />
        </mxCell>
        <mxCell id="3RpPMezvQt_zFxOXLZJK-7" value="" style="endArrow=classic;html=1;rounded=0;fontSize=11;" parent="1" source="3RpPMezvQt_zFxOXLZJK-6" target="r7IJiQC3CwLekN_o84LE-18" edge="1">
          <mxGeometry width="50" height="50" relative="1" as="geometry">
            <mxPoint x="570" y="890" as="sourcePoint" />
            <mxPoint x="620" y="840" as="targetPoint" />
          </mxGeometry>
        </mxCell>
        <mxCell id="3RpPMezvQt_zFxOXLZJK-8" value="Detection, Adherence" style="rounded=1;whiteSpace=wrap;html=1;" parent="1" vertex="1">
          <mxGeometry x="720" y="980" width="120" height="25" as="geometry" />
        </mxCell>
        <mxCell id="3RpPMezvQt_zFxOXLZJK-9" value="" style="endArrow=none;dashed=1;html=1;rounded=0;fontSize=11;" parent="1" source="3RpPMezvQt_zFxOXLZJK-8" target="3RpPMezvQt_zFxOXLZJK-6" edge="1">
          <mxGeometry width="50" height="50" relative="1" as="geometry">
            <mxPoint x="680" y="980" as="sourcePoint" />
            <mxPoint x="730" y="930" as="targetPoint" />
          </mxGeometry>
        </mxCell>
        <mxCell id="3RpPMezvQt_zFxOXLZJK-10" value="&lt;div style=&quot;line-height: 52%;&quot;&gt;&lt;h1 class=&quot;Head u-font-gulliver u-h2 u-margin-s-ver&quot; id=&quot;screen-reader-main-title&quot;&gt;&lt;font style=&quot;font-size: 11px; font-weight: normal;&quot;&gt;A clinical evaluation of a low-cost strain gauge respiration belt and machine learning to detect sleep apnea, 2023&lt;/font&gt;&lt;/h1&gt;&lt;/div&gt;" style="ellipse;whiteSpace=wrap;html=1;shadow=0;align=center;fillColor=#ffe6cc;strokeColor=#d79b00;" parent="1" vertex="1">
          <mxGeometry x="170" y="760" width="140" height="90" as="geometry" />
        </mxCell>
        <mxCell id="3RpPMezvQt_zFxOXLZJK-11" value="" style="endArrow=classic;html=1;rounded=0;fontSize=11;" parent="1" source="3RpPMezvQt_zFxOXLZJK-10" target="r7IJiQC3CwLekN_o84LE-18" edge="1">
          <mxGeometry width="50" height="50" relative="1" as="geometry">
            <mxPoint x="660" y="830" as="sourcePoint" />
            <mxPoint x="710" y="780" as="targetPoint" />
          </mxGeometry>
        </mxCell>
        <mxCell id="3RpPMezvQt_zFxOXLZJK-14" value="" style="endArrow=none;dashed=1;html=1;dashPattern=1 3;strokeWidth=2;rounded=0;fontSize=11;" parent="1" source="3RpPMezvQt_zFxOXLZJK-10" target="2qFLCFtwBSNQnZVzGPH8-2" edge="1">
          <mxGeometry width="50" height="50" relative="1" as="geometry">
            <mxPoint x="250" y="800" as="sourcePoint" />
            <mxPoint x="300" y="750" as="targetPoint" />
          </mxGeometry>
        </mxCell>
        <mxCell id="-yDSvKRztKFDzpOjWPlr-1" value="&lt;div style=&quot;line-height: 38%;&quot;&gt;&lt;h1 style=&quot;line-height: 38%;&quot; class=&quot;document-title text-2xl-md-lh&quot;&gt;&lt;font style=&quot;font-size: 11px; font-weight: normal;&quot;&gt;Self-x based closed loop wearable IoT for real-time detection and resolution of sleep apnea, 2023&lt;/font&gt;&lt;/h1&gt;&lt;/div&gt;" style="ellipse;whiteSpace=wrap;html=1;shadow=0;align=center;fillColor=#ffe6cc;strokeColor=#d79b00;" parent="1" vertex="1">
          <mxGeometry x="320" y="890" width="140" height="90" as="geometry" />
        </mxCell>
        <mxCell id="-yDSvKRztKFDzpOjWPlr-2" value="" style="endArrow=classic;html=1;rounded=0;fontSize=11;exitX=0.5;exitY=0;exitDx=0;exitDy=0;" parent="1" source="-yDSvKRztKFDzpOjWPlr-1" target="3RpPMezvQt_zFxOXLZJK-4" edge="1">
          <mxGeometry width="50" height="50" relative="1" as="geometry">
            <mxPoint x="486.7300238666073" y="791.495454586206" as="sourcePoint" />
            <mxPoint x="546.3621551876502" y="748.5522009588767" as="targetPoint" />
          </mxGeometry>
        </mxCell>
        <mxCell id="YSMUTIpFwWv2oDHMdt_q-1" value="&lt;div style=&quot;line-height: 28%;&quot;&gt;&lt;h1 style=&quot;line-height: 28%;&quot; class=&quot;document-title text-2xl-md-lh&quot;&gt;&lt;font style=&quot;font-size: 10px; font-weight: normal;&quot;&gt;Characterizing and Modeling Breathing Dynamics: Flow Rate, Rhythm, Period, and Frequency, 2022&lt;/font&gt;&lt;/h1&gt;&lt;/div&gt;" style="ellipse;whiteSpace=wrap;html=1;shadow=0;align=center;fillColor=#ffe6cc;strokeColor=#d79b00;" parent="1" vertex="1">
          <mxGeometry x="460" y="-650" width="140" height="120" as="geometry" />
        </mxCell>
        <mxCell id="u_6TghbcLt0mJu6TNkku-2" value="&lt;div style=&quot;line-height: 28%;&quot;&gt;&lt;h1 style=&quot;line-height: 28%;&quot; class=&quot;document-title text-2xl-md-lh&quot;&gt;&lt;font style=&quot;font-size: 10px; font-weight: normal;&quot;&gt;Self-Organizing Maps for Contrastive Embeddings of Sleep Recordings, 2022&lt;/font&gt;&lt;/h1&gt;&lt;/div&gt;" style="ellipse;whiteSpace=wrap;html=1;shadow=0;align=center;fillColor=#f5f5f5;fontColor=#333333;strokeColor=#666666;" parent="1" vertex="1">
          <mxGeometry x="500" y="1250" width="140" height="120" as="geometry" />
        </mxCell>
        <mxCell id="BTIZOSdXw6bUIAzQ4Esy-2" value="&lt;div style=&quot;&quot;&gt;&lt;h1 style=&quot;font-size: 11px;&quot; class=&quot;Head u-font-serif u-h2 u-margin-s-ver&quot; id=&quot;screen-reader-main-title&quot;&gt;&lt;span style=&quot;font-weight: normal;&quot;&gt;Automated detection of obstructive sleep apnea in more than 8000 subjects using frequency optimized orthogonal wavelet filter bank with respiratory and oximetry signals, 2022&lt;/span&gt;&lt;/h1&gt;&lt;/div&gt;" style="ellipse;whiteSpace=wrap;html=1;shadow=0;fillColor=#F5F5F5;strokeWidth=4;" parent="1" vertex="1">
          <mxGeometry x="770" y="80" width="260" height="140" as="geometry" />
        </mxCell>
        <mxCell id="BTIZOSdXw6bUIAzQ4Esy-3" value="" style="endArrow=classic;html=1;rounded=0;" parent="1" source="BTIZOSdXw6bUIAzQ4Esy-2" target="2qFLCFtwBSNQnZVzGPH8-14" edge="1">
          <mxGeometry width="50" height="50" relative="1" as="geometry">
            <mxPoint x="710" y="690" as="sourcePoint" />
            <mxPoint x="760" y="640" as="targetPoint" />
          </mxGeometry>
        </mxCell>
        <mxCell id="BTIZOSdXw6bUIAzQ4Esy-8" value="&lt;div style=&quot;&quot;&gt;International Classification of Sleep Disorders-Third Edition, 2014&lt;br&gt;&lt;/div&gt;" style="ellipse;whiteSpace=wrap;html=1;shadow=0;" parent="1" vertex="1">
          <mxGeometry x="520" y="70" width="240" height="100" as="geometry" />
        </mxCell>
        <mxCell id="BTIZOSdXw6bUIAzQ4Esy-10" value="" style="endArrow=classic;html=1;rounded=0;" parent="1" source="BTIZOSdXw6bUIAzQ4Esy-8" target="2qFLCFtwBSNQnZVzGPH8-14" edge="1">
          <mxGeometry width="50" height="50" relative="1" as="geometry">
            <mxPoint x="720" y="280" as="sourcePoint" />
            <mxPoint x="770" y="230" as="targetPoint" />
            <Array as="points">
              <mxPoint x="700" y="290" />
            </Array>
          </mxGeometry>
        </mxCell>
        <mxCell id="BTIZOSdXw6bUIAzQ4Esy-11" value="(Indirect)" style="edgeLabel;html=1;align=center;verticalAlign=middle;resizable=0;points=[];" parent="BTIZOSdXw6bUIAzQ4Esy-10" vertex="1" connectable="0">
          <mxGeometry x="-0.2262" y="1" relative="1" as="geometry">
            <mxPoint x="-14" y="-60" as="offset" />
          </mxGeometry>
        </mxCell>
        <mxCell id="k4pe_rP9Na6V321jUqEI-1" value="&lt;div style=&quot;&quot;&gt;TimeSieve: Extracting Temporal Dynamics through Information Bottleneck, 2024&lt;br&gt;&lt;/div&gt;" style="ellipse;whiteSpace=wrap;html=1;shadow=0;" vertex="1" parent="1">
          <mxGeometry x="50" y="-490" width="220" height="90" as="geometry" />
        </mxCell>
      </root>
    </mxGraphModel>
  </diagram>
</mxfile>
